PathFileType  4	(X/Y/Z) C:\Users\antoi\Documents\MyRepositories\mobilecap\ResultsAnalysis
DataRate	CameraRate	NumFrames	NumMarkers	Units	OrigDataRate	OrigDataStartFrame	OrigNumFrames
100.0	100.0	4	51	mm	100.0	1	662
Frame#	Time	r_knee			r_shank_antsup			r_ankle			r_calc			r_5meta			r_toe			L_knee			L_shank_antsup			L_ankle			L_calc			L_5meta			L_toe			r_sh2			r_sh3			r_sh4			L_sh2			L_sh3			r_thigh1			r_thigh2			r_thigh3			r_thigh4			r_thigh5			L_thigh1			L_thigh2			L_thigh3			L_thigh4			r.ASIS			r.PSIS			L.ASIS			L.PSIS			C7			R_Shoulder			L_Shoulder			R_Sternum			L_Sternum			R_humerus			R_elbow_med			R_elbow_lat			R_forearm			R_wrist_radius			R_wrist_ulna			L_humerus			L_elbow_med			L_elbow_lat			L_forearm			L_wrist_radius			L_wrist_ulna			R_HJC			L_HJC			R_HJC_reg			L_HJC_reg			
		X1	Y1	Z1	X2	Y2	Z2	X3	Y3	Z3	X4	Y4	Z4	X5	Y5	Z5	X6	Y6	Z6	X7	Y7	Z7	X8	Y8	Z8	X9	Y9	Z9	X10	Y10	Z10	X11	Y11	Z11	X12	Y12	Z12	X13	Y13	Z13	X14	Y14	Z14	X15	Y15	Z15	X16	Y16	Z16	X17	Y17	Z17	X18	Y18	Z18	X19	Y19	Z19	X20	Y20	Z20	X21	Y21	Z21	X22	Y22	Z22	X23	Y23	Z23	X24	Y24	Z24	X25	Y25	Z25	X26	Y26	Z26	X27	Y27	Z27	X28	Y28	Z28	X29	Y29	Z29	X30	Y30	Z30	X31	Y31	Z31	X32	Y32	Z32	X33	Y33	Z33	X34	Y34	Z34	X35	Y35	Z35	X36	Y36	Z36	X37	Y37	Z37	X38	Y38	Z38	X39	Y39	Z39	X40	Y40	Z40	X41	Y41	Z41	X42	Y42	Z42	X43	Y43	Z43	X44	Y44	Z44	X45	Y45	Z45	X46	Y46	Z46	X47	Y47	Z47	X48	Y48	Z48	X49	Y49	Z49	X50	Y50	Z50	X51	Y51	Z51	

1	0.00000000	-170.03673	465.08568	-414.17601	-118.88147	394.93564	-416.85534	-293.59571	100.46191	-411.53998	-364.69829	63.76463	-447.26496	-197.91797	46.62392	-365.13986	-147.08205	70.48621	-418.24962	-189.75688	461.35306	-903.03248	-144.73630	377.88227	-914.12340	-295.17244	101.45605	-891.84526	-365.99537	63.50107	-848.14962	-194.44933	42.46410	-940.21953	-151.02336	62.98780	-885.54952	-179.82299	298.03209	-393.46438	-189.18577	432.73075	-399.06374	-244.20314	334.95905	-391.74334	-228.19121	411.09768	-912.43288	-264.68835	293.50062	-919.79745	-473.23872	553.95569	-468.90078	-364.11022	541.42962	-451.94947	-352.57490	485.09270	-414.92811	-490.36682	445.07457	-444.83002	-374.12956	433.09857	-425.84806	-455.65182	514.91144	-894.01478	-318.59427	515.27892	-901.08229	-455.48662	402.22865	-858.60286	-315.97240	407.77360	-880.12037	-477.49360	578.77863	-541.99071	-671.78887	586.37995	-605.75832	-494.51384	571.31007	-791.60779	-688.31256	586.86147	-701.45502	-660.42594	999.06052	-671.77626	-556.83531	973.05158	-499.43498	-596.26068	971.15636	-852.25302	-518.74114	973.85419	-658.05504	-514.42155	972.18118	-698.84279	-557.02950	849.55679	-420.25553	-600.80169	632.62115	-434.32930	-593.59197	661.90518	-361.12341	-461.38135	696.36859	-383.91622	-341.45584	723.45777	-420.08647	-327.49318	691.98256	-412.44975	-589.39409	857.55619	-916.36582	-605.72652	623.95056	-857.35653	-617.14189	651.43159	-937.77191	-519.32240	693.85070	-935.01036	-372.97625	734.20371	-930.60160	-366.49267	700.06774	-936.03744	-539.73775	487.64480	-559.76275	-557.11972	485.91201	-765.49337	-529.91018	490.90777	-568.40827	-558.01910	491.72690	-731.20068	
2	0.01000000	-170.18708	465.07079	-414.21282	-119.05820	394.89623	-417.02195	-293.61297	100.46102	-411.52896	-364.76922	63.69586	-447.24581	-197.96694	46.67159	-365.28885	-147.18111	70.64909	-418.31089	-189.89753	461.39538	-903.03224	-144.85487	377.84724	-914.04559	-295.20447	101.47030	-891.86282	-366.02280	63.45492	-848.17836	-194.47266	42.49323	-940.18573	-151.03110	63.11023	-885.51788	-180.08925	298.16278	-393.81090	-189.37166	432.75751	-399.17756	-245.28041	335.59296	-391.82147	-228.28020	411.07377	-912.36038	-264.76216	293.55446	-919.78237	-473.39624	553.92094	-468.87016	-364.28451	541.52303	-451.85268	-352.71515	485.07181	-414.86971	-490.58998	444.98380	-444.90963	-374.31632	433.07999	-425.85480	-456.13985	514.66820	-894.38544	-318.77737	515.18540	-901.00511	-455.69962	402.20396	-858.32390	-316.12014	407.75695	-880.04544	-477.59220	578.95299	-542.07737	-671.80127	586.55089	-605.83718	-494.54329	571.44898	-791.71931	-688.15554	587.10190	-701.28007	-659.49030	998.96472	-671.81447	-556.03460	973.03747	-499.41463	-595.34578	971.07604	-852.23230	-517.63919	973.72923	-658.07380	-513.63176	971.72237	-698.79775	-556.46057	849.56924	-420.18124	-600.40900	632.60197	-434.18254	-593.32350	661.93162	-361.09554	-461.05318	696.28054	-383.84753	-341.09362	723.23015	-419.92408	-327.14831	691.69800	-412.54677	-588.89129	857.53588	-916.35441	-605.35819	624.54119	-857.33832	-616.72679	651.56693	-937.90290	-518.90816	693.79978	-934.92142	-372.51338	734.07514	-930.56066	-365.96067	700.05464	-936.42184	-539.73817	487.81529	-559.79622	-557.16530	486.08419	-765.52303	-530.04695	490.96694	-568.62832	-557.94982	491.90707	-731.46963	
3	0.02000000	-170.33562	465.10361	-414.22443	-119.29119	394.90454	-417.17322	-293.65085	100.48814	-411.50668	-364.81717	63.57431	-447.20077	-198.01742	46.74868	-365.47138	-147.26983	70.81397	-418.41649	-190.07584	461.42085	-902.97406	-144.94912	377.85394	-914.04052	-295.25077	101.45912	-891.84222	-366.09580	63.38046	-848.16537	-194.50862	42.52798	-940.16717	-151.04278	63.21560	-885.52907	-180.30188	298.16035	-394.04981	-189.62338	432.75683	-399.30589	-245.66276	335.62395	-391.90655	-228.41157	410.99268	-912.22213	-264.84802	293.57798	-919.77655	-473.58879	553.99711	-468.78510	-364.45902	541.62454	-451.78050	-352.91368	485.07321	-414.88199	-490.91359	445.05621	-444.88849	-374.58939	433.09849	-425.92376	-456.15830	514.85211	-894.27535	-318.92290	515.13918	-900.99621	-455.88787	402.23776	-858.28993	-316.33200	407.69461	-879.80353	-477.71586	579.24218	-542.15751	-671.82256	586.67410	-605.85249	-494.59714	571.59757	-791.92195	-688.08189	587.28067	-701.21940	-658.30815	998.94170	-671.84385	-555.13880	973.19665	-499.22698	-594.24752	971.04569	-852.20734	-516.33838	973.49146	-658.02232	-512.31583	971.20574	-698.89921	-555.85083	849.56300	-420.05251	-600.12617	632.65426	-434.11011	-592.96831	661.94012	-361.01436	-460.63607	696.20113	-383.68555	-340.61706	722.97970	-419.82657	-326.73855	691.40140	-412.52442	-588.27875	857.59416	-916.43478	-604.83772	624.71244	-857.70769	-616.20144	651.64630	-937.98807	-518.38032	693.84606	-935.09718	-371.92284	733.89948	-930.59812	-365.39148	699.83521	-936.52973	-539.70725	488.04922	-559.83698	-557.19487	486.24256	-765.55800	-530.09474	491.02363	-568.83674	-557.87543	492.05999	-731.77990	
4	0.03000000	-170.53831	465.14209	-414.30404	-119.60601	394.96861	-417.34579	-293.72294	100.56922	-411.45775	-364.87021	63.43406	-447.15525	-198.06681	46.84898	-365.60387	-147.35626	71.02655	-418.54310	-190.32377	461.39481	-902.81138	-145.04365	377.89069	-914.07861	-295.30518	101.43253	-891.80595	-366.17811	63.28570	-848.17169	-194.55035	42.55919	-940.09573	-151.05475	63.32758	-885.56618	-180.47211	298.04884	-394.32196	-189.96090	432.78013	-399.41430	-245.63705	335.40489	-392.07473	-228.55641	410.90349	-912.06707	-264.95279	293.60721	-919.84514	-473.93804	554.15096	-468.79681	-364.64518	541.74040	-451.74288	-353.15883	485.05824	-414.97285	-491.27569	445.28721	-444.85264	-374.89489	433.17614	-425.98379	-456.10619	515.12764	-894.12218	-319.06613	515.12287	-901.02764	-456.07274	402.27873	-858.37255	-316.56054	407.61502	-879.51366	-477.89541	579.55341	-542.19846	-671.83388	586.78541	-605.87155	-494.65758	571.67342	-792.08648	-688.05934	587.42199	-701.20214	-656.84828	998.98347	-671.83821	-554.04408	973.37114	-498.96067	-592.87292	971.04520	-852.21079	-514.74756	973.28314	-657.98735	-510.47207	971.18538	-699.05081	-555.14227	849.57775	-419.86395	-599.84982	632.72506	-434.04080	-592.50349	662.02005	-360.81444	-460.07034	696.14398	-383.41943	-340.02076	722.70732	-419.75953	-326.22751	691.13980	-412.34258	-587.46151	857.68006	-916.49408	-604.10442	624.48999	-858.31906	-615.56596	651.68749	-938.09248	-517.68506	693.94321	-935.55154	-371.18281	733.61797	-930.70428	-364.71295	699.45852	-936.46137	-539.72084	488.29596	-559.82713	-557.22767	486.33750	-765.54512	-530.11019	491.07704	-568.96093	-557.85848	492.16570	-731.99136	
